<?xml version="1.0" encoding="UTF-8" standalone="no"?>
<!DOCTYPE svg PUBLIC "-//W3C//DTD SVG 1.1//EN"
 "http://www.w3.org/Graphics/SVG/1.1/DTD/svg11.dtd">
<!-- Generated by graphviz version 2.43.0 (0)
 -->
<!-- Title: sourcetree Pages: 1 -->
<svg width="824pt" height="260pt"
 viewBox="0.00 0.00 823.50 260.00" xmlns="http://www.w3.org/2000/svg" xmlns:xlink="http://www.w3.org/1999/xlink">
<g id="graph0" class="graph" transform="scale(1 1) rotate(0) translate(4 256)">
<title>sourcetree</title>
<polygon fill="white" stroke="transparent" points="-4,4 -4,-256 819.5,-256 819.5,4 -4,4"/>
<!-- MulleObjCInetFoundation -->
<g id="node1" class="node">
<title>MulleObjCInetFoundation</title>
<polygon fill="yellow" stroke="black" points="459,-252 258,-252 258,-216 459,-216 459,-252"/>
<text text-anchor="middle" x="358.5" y="-230.3" font-family="Times,serif" font-size="14.00">MulleObjCInetFoundation</text>
</g>
<!-- mulle&#45;objc&#45;list -->
<g id="node2" class="node">
<title>mulle&#45;objc&#45;list</title>
<polygon fill="lightgrey" stroke="black" points="117,-180 0,-180 0,-144 117,-144 117,-180"/>
<text text-anchor="middle" x="58.5" y="-158.3" font-family="Times,serif" font-size="14.00">mulle&#45;objc&#45;list</text>
</g>
<!-- MulleObjCInetFoundation&#45;&gt;mulle&#45;objc&#45;list -->
<g id="edge1" class="edge">
<title>MulleObjCInetFoundation&#45;&gt;mulle&#45;objc&#45;list</title>
<path fill="none" stroke="black" d="M282.13,-215.96C239.32,-206.32 184.69,-193.85 127.11,-180.12"/>
<polygon fill="black" stroke="black" points="127.63,-176.65 117.09,-177.73 126,-183.46 127.63,-176.65"/>
</g>
<!-- MulleObjCLockFoundation -->
<g id="node3" class="node">
<title>MulleObjCLockFoundation</title>
<polygon fill="lightgrey" stroke="black" points="341.5,-180 135.5,-180 135.5,-144 341.5,-144 341.5,-180"/>
<text text-anchor="middle" x="238.5" y="-158.3" font-family="Times,serif" font-size="14.00">MulleObjCLockFoundation</text>
</g>
<!-- MulleObjCInetFoundation&#45;&gt;MulleObjCLockFoundation -->
<g id="edge2" class="edge">
<title>MulleObjCInetFoundation&#45;&gt;MulleObjCLockFoundation</title>
<path fill="none" stroke="black" d="M329.14,-215.88C313.45,-206.72 293.94,-195.34 277.05,-185.48"/>
<polygon fill="black" stroke="black" points="278.37,-182.21 267.97,-180.19 274.84,-188.25 278.37,-182.21"/>
</g>
<!-- MulleObjCStandardFoundation -->
<g id="node4" class="node">
<title>MulleObjCStandardFoundation</title>
<polygon fill="lightgrey" stroke="black" points="599,-180 360,-180 360,-144 599,-144 599,-180"/>
<text text-anchor="middle" x="479.5" y="-158.3" font-family="Times,serif" font-size="14.00">MulleObjCStandardFoundation</text>
</g>
<!-- MulleObjCInetFoundation&#45;&gt;MulleObjCStandardFoundation -->
<g id="edge3" class="edge">
<title>MulleObjCInetFoundation&#45;&gt;MulleObjCStandardFoundation</title>
<path fill="none" stroke="black" d="M388.1,-215.88C404.07,-206.64 423.96,-195.13 441.11,-185.21"/>
<polygon fill="black" stroke="black" points="442.88,-188.23 449.79,-180.19 439.38,-182.17 442.88,-188.23"/>
</g>
<!-- mulle&#45;url -->
<g id="node5" class="node">
<title>mulle&#45;url</title>
<polygon fill="lightgrey" stroke="black" points="698,-180 617,-180 617,-144 698,-144 698,-180"/>
<text text-anchor="middle" x="657.5" y="-158.3" font-family="Times,serif" font-size="14.00">mulle&#45;url</text>
</g>
<!-- MulleObjCInetFoundation&#45;&gt;mulle&#45;url -->
<g id="edge4" class="edge">
<title>MulleObjCInetFoundation&#45;&gt;mulle&#45;url</title>
<path fill="none" stroke="black" d="M452.37,-215.99C496.97,-207.21 551.12,-195.57 607.23,-180.2"/>
<polygon fill="black" stroke="black" points="608.28,-183.54 616.98,-177.5 606.41,-176.79 608.28,-183.54"/>
</g>
<!-- mulle&#45;time -->
<g id="node6" class="node">
<title>mulle&#45;time</title>
<polygon fill="lightgrey" stroke="black" points="190,-108 97,-108 97,-72 190,-72 190,-108"/>
<text text-anchor="middle" x="143.5" y="-86.3" font-family="Times,serif" font-size="14.00">mulle&#45;time</text>
</g>
<!-- MulleObjCLockFoundation&#45;&gt;mulle&#45;time -->
<g id="edge5" class="edge">
<title>MulleObjCLockFoundation&#45;&gt;mulle&#45;time</title>
<path fill="none" stroke="black" d="M215.02,-143.7C202.94,-134.8 188.05,-123.82 174.98,-114.2"/>
<polygon fill="black" stroke="black" points="176.84,-111.22 166.71,-108.1 172.69,-116.85 176.84,-111.22"/>
</g>
<!-- MulleObjCContainerFoundation -->
<g id="node7" class="node">
<title>MulleObjCContainerFoundation</title>
<polygon fill="lightgrey" stroke="black" points="451,-108 208,-108 208,-72 451,-72 451,-108"/>
<text text-anchor="middle" x="329.5" y="-86.3" font-family="Times,serif" font-size="14.00">MulleObjCContainerFoundation</text>
</g>
<!-- MulleObjCStandardFoundation&#45;&gt;MulleObjCContainerFoundation -->
<g id="edge6" class="edge">
<title>MulleObjCStandardFoundation&#45;&gt;MulleObjCContainerFoundation</title>
<path fill="none" stroke="black" d="M442.81,-143.88C422.48,-134.39 397.03,-122.51 375.4,-112.42"/>
<polygon fill="black" stroke="black" points="376.62,-109.13 366.07,-108.07 373.66,-115.47 376.62,-109.13"/>
</g>
<!-- MulleObjCValueFoundation -->
<g id="node8" class="node">
<title>MulleObjCValueFoundation</title>
<polygon fill="lightgrey" stroke="black" points="681.5,-108 469.5,-108 469.5,-72 681.5,-72 681.5,-108"/>
<text text-anchor="middle" x="575.5" y="-86.3" font-family="Times,serif" font-size="14.00">MulleObjCValueFoundation</text>
</g>
<!-- MulleObjCStandardFoundation&#45;&gt;MulleObjCValueFoundation -->
<g id="edge7" class="edge">
<title>MulleObjCStandardFoundation&#45;&gt;MulleObjCValueFoundation</title>
<path fill="none" stroke="black" d="M503.23,-143.7C515.44,-134.8 530.49,-123.82 543.68,-114.2"/>
<polygon fill="black" stroke="black" points="546.02,-116.82 552.04,-108.1 541.9,-111.17 546.02,-116.82"/>
</g>
<!-- mulle&#45;unicode -->
<g id="node9" class="node">
<title>mulle&#45;unicode</title>
<polygon fill="lightgrey" stroke="black" points="815.5,-108 699.5,-108 699.5,-72 815.5,-72 815.5,-108"/>
<text text-anchor="middle" x="757.5" y="-86.3" font-family="Times,serif" font-size="14.00">mulle&#45;unicode</text>
</g>
<!-- MulleObjCStandardFoundation&#45;&gt;mulle&#45;unicode -->
<g id="edge8" class="edge">
<title>MulleObjCStandardFoundation&#45;&gt;mulle&#45;unicode</title>
<path fill="none" stroke="black" d="M547.45,-143.98C586.39,-134.21 636.44,-121.64 689.46,-108.26"/>
<polygon fill="black" stroke="black" points="690.56,-111.59 699.4,-105.75 688.84,-104.81 690.56,-111.59"/>
</g>
<!-- MulleObjC -->
<g id="node10" class="node">
<title>MulleObjC</title>
<polygon fill="lightgrey" stroke="black" points="621.5,-36 529.5,-36 529.5,0 621.5,0 621.5,-36"/>
<text text-anchor="middle" x="575.5" y="-14.3" font-family="Times,serif" font-size="14.00">MulleObjC</text>
</g>
<!-- MulleObjCValueFoundation&#45;&gt;MulleObjC -->
<g id="edge9" class="edge">
<title>MulleObjCValueFoundation&#45;&gt;MulleObjC</title>
<path fill="none" stroke="black" d="M575.5,-71.7C575.5,-63.98 575.5,-54.71 575.5,-46.11"/>
<polygon fill="black" stroke="black" points="579,-46.1 575.5,-36.1 572,-46.1 579,-46.1"/>
</g>
</g>
</svg>
